# xmcd
#
# Track frame offsets: 
#        182
#        19275
#        36815
#        57045
#        75200
#        93872
#        119652
#        144232
#        163567
#        180907
#        203782
#        223670
#
# Disc length: 3088 seconds
#
# Revision: 1
# Processed by: cddbd v1.5.2PL0 Copyright (c) Steve Scherf et al.
# Submitted via: ExactAudioCopy v1.0b1
#
DISCID=930c0e0c
DTITLE=Bo Dollis and The Wild Magnolias - 1313 Hoodoo Street
DYEAR=1996
DGENRE=Funk
TTITLE0=I Been Hoodood
TTITLE1=Run Joe
TTITLE2=Angola Bound
TTITLE3=Might Mighty Chief
TTITLE4=Hey, Hey
TTITLE5=Louisiana
TTITLE6=Walk On Gilded Splinters
TTITLE7=Voodoo
TTITLE8=Quitters Never Win
TTITLE9=I Know You Mardi Gras
TTITLE10=Injuns Here They Come
TTITLE11=Indian Red (Chant)
EXTD=
EXTT0=
EXTT1=
EXTT2=
EXTT3=
EXTT4=
EXTT5=
EXTT6=
EXTT7=
EXTT8=
EXTT9=
EXTT10=
EXTT11=
PLAYORDER=
